<svg id="Capa_1" enable-background="new 0 0 511.999 511.999" height="512" viewBox="0 0 511.999 511.999" width="512" xmlns="http://www.w3.org/2000/svg" fill="#E95D25"><g><path d="m493.819 101.711c11.556-11.085 18.011-26.008 18.177-42.02s-5.979-31.065-17.301-42.388c-11.323-11.322-26.39-17.445-42.387-17.3-16.012.166-30.935 6.621-42.02 18.176l-101.733 106.044-43.262-13.049 32.447-32.447-21.213-21.213-43.828 43.828-32.599-9.833 33.997-33.998-21.213-21.211-45.379 45.379-97.905-29.53-69.512 69.512 194.251 121.619-47.639 49.658-84.555-18.447-62.145 62.146 111.815 63.547 63.548 111.814 62.146-62.145-18.447-84.553 49.659-47.64 121.618 194.251 69.512-69.512-29.531-97.906 45.379-45.378-21.213-21.213-33.997 33.998-9.833-32.599 43.828-43.828-21.213-21.213-32.447 32.447-13.049-43.262zm-445.873 14.518 30.176-30.175 207.118 62.473-69.687 72.64zm156.758 324.004-22.713 22.712-48.174-84.763-84.764-48.173 22.713-22.714 84.951 18.533 275.218-286.88c5.456-5.688 12.802-8.865 20.683-8.946.106-.002.208-.002.313-.002 7.764 0 15.053 3.018 20.552 8.517 5.572 5.573 8.597 12.982 8.515 20.863-.081 7.881-3.259 15.227-8.946 20.683l-286.882 275.218zm221.242-6.355-30.176 30.176-104.936-167.608 72.639-69.686z"/></g></svg>